# MagicaVoxel @ Ephtracy

# group
o 

# material
mtllib Antorcha.mtl
usemtl palette

# normals
vn -1 0 0
vn 1 0 0
vn 0 0 1
vn 0 0 -1
vn 0 -1 0
vn 0 1 0

# texcoords
vt 0.0214844 0.5
vt 0.0878906 0.5
vt 0.986328 0.5
vt 0.994141 0.5

# verts
v -0.3 1.9 0.3
v -0.3 1.9 0.2
v -0.3 1.9 0.1
v -0.3 1.9 0
v -0.3 2 0.3
v -0.3 2 0.2
v -0.3 2 0.1
v -0.3 2 0
v -0.3 2.1 0.3
v -0.3 2.1 0.2
v -0.3 2.1 0.1
v -0.3 2.1 0
v -0.3 2.2 0.2
v -0.3 2.2 0.1
v -0.3 2.3 0.2
v -0.3 2.3 0.1
v -0.2 1.2 0.2
v -0.2 1.2 0.1
v -0.2 1.5 0.2
v -0.2 1.5 0.1
v -0.2 1.7 0.3
v -0.2 1.7 0.2
v -0.2 1.7 0.1
v -0.2 1.7 0
v -0.2 1.9 0.4
v -0.2 1.9 0.3
v -0.2 1.9 0.2
v -0.2 1.9 0.1
v -0.2 1.9 0
v -0.2 1.9 -0.1
v -0.2 2 0.4
v -0.2 2 0.3
v -0.2 2 0
v -0.2 2 -0.1
v -0.2 2.1 0.4
v -0.2 2.1 0.3
v -0.2 2.1 0.2
v -0.2 2.1 0.1
v -0.2 2.1 0
v -0.2 2.1 -0.1
v -0.2 2.2 0.3
v -0.2 2.2 0.2
v -0.2 2.2 0.1
v -0.2 2.3 0.3
v -0.2 2.3 0.2
v -0.2 2.3 0.1
v -0.2 2.3 0
v -0.2 2.4 0.3
v -0.2 2.4 0.2
v -0.2 2.4 0.1
v -0.2 2.4 0
v -0.2 2.5 0.2
v -0.2 2.5 0.1
v -0.2 2.6 0.2
v -0.2 2.6 0.1
v -0.1 0.7 0.2
v -0.1 0.7 0.1
v -0.1 1.2 0.3
v -0.1 1.2 0.2
v -0.1 1.2 0.1
v -0.1 1.2 0
v -0.1 1.5 0.3
v -0.1 1.5 0.2
v -0.1 1.5 0.1
v -0.1 1.5 0
v -0.1 1.7 0.3
v -0.1 1.7 0.2
v -0.1 1.7 0.1
v -0.1 1.7 0
v -0.1 2.1 0.4
v -0.1 2.1 0.3
v -0.1 2.1 0
v -0.1 2.1 -0.1
v -0.1 2.2 0.4
v -0.1 2.2 0.3
v -0.1 2.3 0
v -0.1 2.3 -0.1
v -0.1 2.4 0.3
v -0.1 2.4 0.2
v -0.1 2.4 0.1
v -0.1 2.4 0
v -0.1 2.5 0.2
v -0.1 2.5 0.1
v -0.1 2.5 0
v -0.1 2.6 0.3
v -0.1 2.6 0.2
v -0.1 2.6 0.1
v -0.1 2.6 0
v -0.1 2.7 0.2
v -0.1 2.7 0.1
v 2.98023e-08 0.7 0.2
v 2.98023e-08 0.7 0.1
v 2.98023e-08 1.2 0.3
v 2.98023e-08 1.2 0.2
v 2.98023e-08 1.2 0.1
v 2.98023e-08 1.2 0
v 2.98023e-08 1.5 0.3
v 2.98023e-08 1.5 0.2
v 2.98023e-08 1.5 0.1
v 2.98023e-08 1.5 0
v 2.98023e-08 1.7 0.3
v 2.98023e-08 1.7 0.2
v 2.98023e-08 1.7 0.1
v 2.98023e-08 1.7 0
v 2.98023e-08 2.1 0.4
v 2.98023e-08 2.1 0.3
v 2.98023e-08 2.1 0
v 2.98023e-08 2.1 -0.1
v 2.98023e-08 2.2 0.4
v 2.98023e-08 2.2 0.3
v 2.98023e-08 2.2 0
v 2.98023e-08 2.3 0
v 2.98023e-08 2.3 -0.1
v 2.98023e-08 2.4 0.3
v 2.98023e-08 2.4 0.2
v 2.98023e-08 2.4 0.1
v 2.98023e-08 2.4 0
v 2.98023e-08 2.5 0.2
v 2.98023e-08 2.5 0.1
v 2.98023e-08 2.5 0
v 2.98023e-08 2.6 0.3
v 2.98023e-08 2.6 0.2
v 2.98023e-08 2.6 0.1
v 2.98023e-08 2.6 0
v 2.98023e-08 2.7 0.2
v 2.98023e-08 2.7 0.1
v 0.1 1.2 0.2
v 0.1 1.2 0.1
v 0.1 1.5 0.2
v 0.1 1.5 0.1
v 0.1 1.7 0.3
v 0.1 1.7 0.2
v 0.1 1.7 0.1
v 0.1 1.7 0
v 0.1 1.9 0.4
v 0.1 1.9 0.3
v 0.1 1.9 0.2
v 0.1 1.9 0.1
v 0.1 1.9 0
v 0.1 1.9 -0.1
v 0.1 2 0.4
v 0.1 2 0.3
v 0.1 2 0
v 0.1 2 -0.1
v 0.1 2.1 0.4
v 0.1 2.1 0.3
v 0.1 2.1 0.2
v 0.1 2.1 0.1
v 0.1 2.1 0
v 0.1 2.1 -0.1
v 0.1 2.2 0.3
v 0.1 2.2 0.2
v 0.1 2.2 0.1
v 0.1 2.2 0
v 0.1 2.3 0.1
v 0.1 2.3 0
v 0.1 2.4 0.3
v 0.1 2.4 0.2
v 0.1 2.4 0.1
v 0.1 2.4 0
v 0.1 2.5 0.2
v 0.1 2.5 0.1
v 0.1 2.6 0.2
v 0.1 2.6 0.1
v 0.2 1.9 0.3
v 0.2 1.9 0.2
v 0.2 1.9 0.1
v 0.2 1.9 0
v 0.2 2 0.3
v 0.2 2 0.2
v 0.2 2 0.1
v 0.2 2 0
v 0.2 2.1 0.3
v 0.2 2.1 0.2
v 0.2 2.1 0.1
v 0.2 2.1 0
v 0.2 2.2 0.2
v 0.2 2.2 0.1
v -0.2 1.9 0.4
v -0.2 2 0.4
v -0.2 2.1 0.4
v -0.1 1.9 0.4
v -0.1 2 0.4
v -0.1 2.1 0.4
v -0.1 2.2 0.4
v 2.98023e-08 1.9 0.4
v 2.98023e-08 2 0.4
v 2.98023e-08 2.1 0.4
v 2.98023e-08 2.2 0.4
v 0.1 1.9 0.4
v 0.1 2 0.4
v 0.1 2.1 0.4
v -0.3 1.9 0.3
v -0.3 2 0.3
v -0.3 2.1 0.3
v -0.2 1.7 0.3
v -0.2 1.9 0.3
v -0.2 2 0.3
v -0.2 2.1 0.3
v -0.2 2.2 0.3
v -0.2 2.3 0.3
v -0.2 2.4 0.3
v -0.1 1.2 0.3
v -0.1 1.5 0.3
v -0.1 1.7 0.3
v -0.1 1.9 0.3
v -0.1 2.1 0.3
v -0.1 2.2 0.3
v -0.1 2.3 0.3
v -0.1 2.4 0.3
v -0.1 2.6 0.3
v 2.98023e-08 1.2 0.3
v 2.98023e-08 1.5 0.3
v 2.98023e-08 1.7 0.3
v 2.98023e-08 1.9 0.3
v 2.98023e-08 2.1 0.3
v 2.98023e-08 2.2 0.3
v 2.98023e-08 2.4 0.3
v 2.98023e-08 2.6 0.3
v 0.1 1.7 0.3
v 0.1 1.9 0.3
v 0.1 2 0.3
v 0.1 2.1 0.3
v 0.1 2.2 0.3
v 0.1 2.4 0.3
v 0.2 1.9 0.3
v 0.2 2 0.3
v 0.2 2.1 0.3
v -0.3 2.1 0.2
v -0.3 2.2 0.2
v -0.3 2.3 0.2
v -0.2 1.2 0.2
v -0.2 1.5 0.2
v -0.2 1.7 0.2
v -0.2 2.1 0.2
v -0.2 2.2 0.2
v -0.2 2.3 0.2
v -0.2 2.4 0.2
v -0.2 2.5 0.2
v -0.2 2.6 0.2
v -0.1 0.7 0.2
v -0.1 1.2 0.2
v -0.1 1.5 0.2
v -0.1 1.7 0.2
v -0.1 2.4 0.2
v -0.1 2.5 0.2
v -0.1 2.6 0.2
v -0.1 2.7 0.2
v 2.98023e-08 0.7 0.2
v 2.98023e-08 1.2 0.2
v 2.98023e-08 1.5 0.2
v 2.98023e-08 1.7 0.2
v 2.98023e-08 2.4 0.2
v 2.98023e-08 2.5 0.2
v 2.98023e-08 2.6 0.2
v 2.98023e-08 2.7 0.2
v 0.1 1.2 0.2
v 0.1 1.5 0.2
v 0.1 1.7 0.2
v 0.1 2.1 0.2
v 0.1 2.2 0.2
v 0.1 2.4 0.2
v 0.1 2.5 0.2
v 0.1 2.6 0.2
v 0.2 2.1 0.2
v 0.2 2.2 0.2
v -0.3 2.1 0.1
v -0.3 2.2 0.1
v -0.3 2.3 0.1
v -0.2 1.2 0.1
v -0.2 1.5 0.1
v -0.2 1.7 0.1
v -0.2 2.1 0.1
v -0.2 2.2 0.1
v -0.2 2.3 0.1
v -0.2 2.4 0.1
v -0.2 2.5 0.1
v -0.2 2.6 0.1
v -0.1 0.7 0.1
v -0.1 1.2 0.1
v -0.1 1.5 0.1
v -0.1 1.7 0.1
v -0.1 2.4 0.1
v -0.1 2.5 0.1
v -0.1 2.6 0.1
v -0.1 2.7 0.1
v 2.98023e-08 0.7 0.1
v 2.98023e-08 1.2 0.1
v 2.98023e-08 1.5 0.1
v 2.98023e-08 1.7 0.1
v 2.98023e-08 2.4 0.1
v 2.98023e-08 2.5 0.1
v 2.98023e-08 2.6 0.1
v 2.98023e-08 2.7 0.1
v 0.1 1.2 0.1
v 0.1 1.5 0.1
v 0.1 1.7 0.1
v 0.1 2.1 0.1
v 0.1 2.2 0.1
v 0.1 2.4 0.1
v 0.1 2.5 0.1
v 0.1 2.6 0.1
v 0.2 2.1 0.1
v 0.2 2.2 0.1
v -0.3 1.9 0
v -0.3 2 0
v -0.3 2.1 0
v -0.2 1.7 0
v -0.2 1.9 0
v -0.2 2 0
v -0.2 2.1 0
v -0.2 2.3 0
v -0.2 2.4 0
v -0.1 1.2 0
v -0.1 1.5 0
v -0.1 1.7 0
v -0.1 1.9 0
v -0.1 2.1 0
v -0.1 2.3 0
v -0.1 2.4 0
v -0.1 2.5 0
v -0.1 2.6 0
v 2.98023e-08 1.2 0
v 2.98023e-08 1.5 0
v 2.98023e-08 1.7 0
v 2.98023e-08 1.9 0
v 2.98023e-08 2.1 0
v 2.98023e-08 2.2 0
v 2.98023e-08 2.3 0
v 2.98023e-08 2.4 0
v 2.98023e-08 2.5 0
v 2.98023e-08 2.6 0
v 0.1 1.7 0
v 0.1 1.9 0
v 0.1 2 0
v 0.1 2.1 0
v 0.1 2.2 0
v 0.1 2.3 0
v 0.1 2.4 0
v 0.2 1.9 0
v 0.2 2 0
v 0.2 2.1 0
v -0.2 1.9 -0.1
v -0.2 2 -0.1
v -0.2 2.1 -0.1
v -0.1 1.9 -0.1
v -0.1 2 -0.1
v -0.1 2.1 -0.1
v -0.1 2.3 -0.1
v 2.98023e-08 1.9 -0.1
v 2.98023e-08 2 -0.1
v 2.98023e-08 2.1 -0.1
v 2.98023e-08 2.3 -0.1
v 0.1 1.9 -0.1
v 0.1 2 -0.1
v 0.1 2.1 -0.1
v -0.1 0.7 0.2
v 2.98023e-08 0.7 0.2
v -0.1 0.7 0.1
v 2.98023e-08 0.7 0.1
v -0.1 1.2 0.3
v 2.98023e-08 1.2 0.3
v -0.2 1.2 0.2
v -0.1 1.2 0.2
v 2.98023e-08 1.2 0.2
v 0.1 1.2 0.2
v -0.2 1.2 0.1
v -0.1 1.2 0.1
v 2.98023e-08 1.2 0.1
v 0.1 1.2 0.1
v -0.1 1.2 0
v 2.98023e-08 1.2 0
v -0.2 1.7 0.3
v -0.1 1.7 0.3
v 2.98023e-08 1.7 0.3
v 0.1 1.7 0.3
v -0.2 1.7 0.2
v -0.1 1.7 0.2
v 2.98023e-08 1.7 0.2
v 0.1 1.7 0.2
v -0.2 1.7 0.1
v -0.1 1.7 0.1
v 2.98023e-08 1.7 0.1
v 0.1 1.7 0.1
v -0.2 1.7 0
v -0.1 1.7 0
v 2.98023e-08 1.7 0
v 0.1 1.7 0
v -0.2 1.9 0.4
v -0.1 1.9 0.4
v 2.98023e-08 1.9 0.4
v 0.1 1.9 0.4
v -0.3 1.9 0.3
v -0.2 1.9 0.3
v -0.1 1.9 0.3
v 2.98023e-08 1.9 0.3
v 0.1 1.9 0.3
v 0.2 1.9 0.3
v -0.3 1.9 0.2
v -0.2 1.9 0.2
v 0.1 1.9 0.2
v 0.2 1.9 0.2
v -0.3 1.9 0.1
v -0.2 1.9 0.1
v 0.1 1.9 0.1
v 0.2 1.9 0.1
v -0.3 1.9 0
v -0.2 1.9 0
v -0.1 1.9 0
v 2.98023e-08 1.9 0
v 0.1 1.9 0
v 0.2 1.9 0
v -0.2 1.9 -0.1
v -0.1 1.9 -0.1
v 2.98023e-08 1.9 -0.1
v 0.1 1.9 -0.1
v -0.2 2.1 0.4
v -0.1 2.1 0.4
v 2.98023e-08 2.1 0.4
v 0.1 2.1 0.4
v -0.3 2.1 0.3
v -0.2 2.1 0.3
v -0.1 2.1 0.3
v 2.98023e-08 2.1 0.3
v 0.1 2.1 0.3
v 0.2 2.1 0.3
v -0.3 2.1 0.2
v -0.2 2.1 0.2
v 0.1 2.1 0.2
v 0.2 2.1 0.2
v -0.3 2.1 0.1
v -0.2 2.1 0.1
v 0.1 2.1 0.1
v 0.2 2.1 0.1
v -0.3 2.1 0
v -0.2 2.1 0
v -0.1 2.1 0
v 2.98023e-08 2.1 0
v 0.1 2.1 0
v 0.2 2.1 0
v -0.2 2.1 -0.1
v -0.1 2.1 -0.1
v 2.98023e-08 2.1 -0.1
v 0.1 2.1 -0.1
v -0.1 2.2 0.4
v 2.98023e-08 2.2 0.4
v -0.1 2.2 0.3
v 2.98023e-08 2.2 0.3
v 0.1 2.2 0.2
v 0.2 2.2 0.2
v 0.1 2.2 0.1
v 0.2 2.2 0.1
v -0.3 2.3 0.2
v -0.2 2.3 0.2
v -0.3 2.3 0.1
v -0.2 2.3 0.1
v -0.1 2.3 0
v 2.98023e-08 2.3 0
v -0.1 2.3 -0.1
v 2.98023e-08 2.3 -0.1
v -0.2 2.4 0.3
v -0.1 2.4 0.3
v 2.98023e-08 2.4 0.3
v 0.1 2.4 0.3
v -0.2 2.4 0.2
v -0.1 2.4 0.2
v 2.98023e-08 2.4 0.2
v 0.1 2.4 0.2
v -0.2 2.4 0.1
v -0.1 2.4 0.1
v 2.98023e-08 2.4 0.1
v 0.1 2.4 0.1
v -0.2 2.4 0
v -0.1 2.4 0
v 2.98023e-08 2.4 0
v 0.1 2.4 0
v -0.1 2.6 0.3
v 2.98023e-08 2.6 0.3
v -0.2 2.6 0.2
v -0.1 2.6 0.2
v 2.98023e-08 2.6 0.2
v 0.1 2.6 0.2
v -0.2 2.6 0.1
v -0.1 2.6 0.1
v 2.98023e-08 2.6 0.1
v 0.1 2.6 0.1
v -0.1 2.6 0
v 2.98023e-08 2.6 0
v -0.1 2.7 0.2
v 2.98023e-08 2.7 0.2
v -0.1 2.7 0.1
v 2.98023e-08 2.7 0.1

# faces
f 5/1/1 2/1/1 1/1/1
f 6/2/1 3/2/1 2/2/1
f 6/1/1 2/1/1 5/1/1
f 7/1/1 4/1/1 3/1/1
f 7/2/1 3/2/1 6/2/1
f 8/1/1 4/1/1 7/1/1
f 9/2/1 6/2/1 5/2/1
f 10/1/1 7/1/1 6/1/1
f 10/2/1 6/2/1 9/2/1
f 11/2/1 8/2/1 7/2/1
f 11/1/1 7/1/1 10/1/1
f 12/2/1 8/2/1 11/2/1
f 13/1/1 11/1/1 10/1/1
f 14/1/1 11/1/1 13/1/1
f 15/2/1 14/2/1 13/2/1
f 16/2/1 14/2/1 15/2/1
f 19/4/1 18/4/1 17/4/1
f 20/4/1 18/4/1 19/4/1
f 22/3/1 20/3/1 19/3/1
f 23/3/1 20/3/1 22/3/1
f 26/3/1 23/3/1 22/3/1
f 26/3/1 24/3/1 23/3/1
f 26/3/1 22/3/1 21/3/1
f 27/3/1 24/3/1 26/3/1
f 28/3/1 24/3/1 27/3/1
f 29/3/1 24/3/1 28/3/1
f 31/1/1 26/1/1 25/1/1
f 32/1/1 26/1/1 31/1/1
f 33/2/1 30/2/1 29/2/1
f 34/2/1 30/2/1 33/2/1
f 35/2/1 32/2/1 31/2/1
f 36/2/1 32/2/1 35/2/1
f 39/1/1 34/1/1 33/1/1
f 40/1/1 34/1/1 39/1/1
f 41/2/1 37/2/1 36/2/1
f 42/2/1 37/2/1 41/2/1
f 43/2/1 39/2/1 38/2/1
f 44/1/1 42/1/1 41/1/1
f 45/1/1 42/1/1 44/1/1
f 46/2/1 39/2/1 43/2/1
f 47/2/1 39/2/1 46/2/1
f 48/2/1 45/2/1 44/2/1
f 49/1/1 46/1/1 45/1/1
f 49/2/1 45/2/1 48/2/1
f 49/1/1 47/1/1 46/1/1
f 50/1/1 47/1/1 49/1/1
f 51/1/1 47/1/1 50/1/1
f 52/2/1 50/2/1 49/2/1
f 53/2/1 50/2/1 52/2/1
f 54/1/1 53/1/1 52/1/1
f 55/1/1 53/1/1 54/1/1
f 59/4/1 57/4/1 56/4/1
f 60/4/1 57/4/1 59/4/1
f 62/4/1 59/4/1 58/4/1
f 63/4/1 59/4/1 62/4/1
f 64/4/1 61/4/1 60/4/1
f 65/4/1 61/4/1 64/4/1
f 66/3/1 63/3/1 62/3/1
f 67/3/1 63/3/1 66/3/1
f 68/3/1 65/3/1 64/3/1
f 69/3/1 65/3/1 68/3/1
f 74/2/1 71/2/1 70/2/1
f 75/2/1 71/2/1 74/2/1
f 76/2/1 73/2/1 72/2/1
f 77/2/1 73/2/1 76/2/1
f 82/2/1 79/2/1 78/2/1
f 83/1/1 81/1/1 80/1/1
f 84/1/1 81/1/1 83/1/1
f 85/2/1 82/2/1 78/2/1
f 86/2/1 82/2/1 85/2/1
f 87/2/1 84/2/1 83/2/1
f 88/2/1 84/2/1 87/2/1
f 89/1/1 87/1/1 86/1/1
f 90/1/1 87/1/1 89/1/1
f 91/4/2 92/4/2 94/4/2
f 94/4/2 92/4/2 95/4/2
f 93/4/2 94/4/2 97/4/2
f 97/4/2 94/4/2 98/4/2
f 95/4/2 96/4/2 99/4/2
f 99/4/2 96/4/2 100/4/2
f 97/3/2 98/3/2 101/3/2
f 101/3/2 98/3/2 102/3/2
f 99/3/2 100/3/2 103/3/2
f 103/3/2 100/3/2 104/3/2
f 105/2/2 106/2/2 109/2/2
f 109/2/2 106/2/2 110/2/2
f 107/2/2 108/2/2 111/2/2
f 111/2/2 108/2/2 112/2/2
f 112/2/2 108/2/2 113/2/2
f 114/2/2 115/2/2 118/2/2
f 116/1/2 117/1/2 119/1/2
f 119/1/2 117/1/2 120/1/2
f 114/2/2 118/2/2 121/2/2
f 121/2/2 118/2/2 122/2/2
f 119/2/2 120/2/2 123/2/2
f 123/2/2 120/2/2 124/2/2
f 122/1/2 123/1/2 125/1/2
f 125/1/2 123/1/2 126/1/2
f 127/4/2 128/4/2 129/4/2
f 129/4/2 128/4/2 130/4/2
f 129/3/2 130/3/2 132/3/2
f 132/3/2 130/3/2 133/3/2
f 132/3/2 133/3/2 136/3/2
f 133/3/2 134/3/2 136/3/2
f 131/3/2 132/3/2 136/3/2
f 136/3/2 134/3/2 137/3/2
f 137/3/2 134/3/2 138/3/2
f 138/3/2 134/3/2 139/3/2
f 135/1/2 136/1/2 141/1/2
f 141/1/2 136/1/2 142/1/2
f 139/2/2 140/2/2 143/2/2
f 143/2/2 140/2/2 144/2/2
f 141/2/2 142/2/2 145/2/2
f 145/2/2 142/2/2 146/2/2
f 143/1/2 144/1/2 149/1/2
f 149/1/2 144/1/2 150/1/2
f 146/2/2 147/2/2 151/2/2
f 151/2/2 147/2/2 152/2/2
f 148/1/2 149/1/2 153/1/2
f 153/1/2 149/1/2 154/1/2
f 152/2/2 153/2/2 155/2/2
f 153/2/2 154/2/2 155/2/2
f 155/2/2 154/2/2 156/2/2
f 151/1/2 152/1/2 157/1/2
f 152/2/2 155/2/2 158/2/2
f 157/1/2 152/1/2 158/1/2
f 155/1/2 156/1/2 159/1/2
f 158/2/2 155/2/2 159/2/2
f 159/1/2 156/1/2 160/1/2
f 158/2/2 159/2/2 161/2/2
f 161/2/2 159/2/2 162/2/2
f 161/1/2 162/1/2 163/1/2
f 163/1/2 162/1/2 164/1/2
f 165/2/2 166/2/2 169/2/2
f 166/1/2 167/1/2 170/1/2
f 169/2/2 166/2/2 170/2/2
f 167/2/2 168/2/2 171/2/2
f 170/1/2 167/1/2 171/1/2
f 171/2/2 168/2/2 172/2/2
f 169/1/2 170/1/2 173/1/2
f 170/2/2 171/2/2 174/2/2
f 173/1/2 170/1/2 174/1/2
f 171/1/2 172/1/2 175/1/2
f 174/2/2 171/2/2 175/2/2
f 175/1/2 172/1/2 176/1/2
f 174/1/2 175/1/2 177/1/2
f 177/1/2 175/1/2 178/1/2
f 182/1/3 180/1/3 179/1/3
f 183/2/3 181/2/3 180/2/3
f 183/1/3 180/1/3 182/1/3
f 184/2/3 181/2/3 183/2/3
f 186/2/3 183/2/3 182/2/3
f 187/1/3 184/1/3 183/1/3
f 187/2/3 183/2/3 186/2/3
f 188/2/3 185/2/3 184/2/3
f 188/1/3 184/1/3 187/1/3
f 189/2/3 185/2/3 188/2/3
f 190/1/3 187/1/3 186/1/3
f 191/2/3 188/2/3 187/2/3
f 191/1/3 187/1/3 190/1/3
f 192/2/3 188/2/3 191/2/3
f 197/1/3 194/1/3 193/1/3
f 198/2/3 195/2/3 194/2/3
f 198/1/3 194/1/3 197/1/3
f 199/2/3 195/2/3 198/2/3
f 205/3/3 197/3/3 196/3/3
f 206/3/3 197/3/3 205/3/3
f 207/2/3 200/2/3 199/2/3
f 208/1/3 201/1/3 200/1/3
f 208/2/3 200/2/3 207/2/3
f 209/2/3 202/2/3 201/2/3
f 209/1/3 201/1/3 208/1/3
f 210/2/3 202/2/3 209/2/3
f 212/4/3 204/4/3 203/4/3
f 213/3/3 206/3/3 205/3/3
f 213/4/3 204/4/3 212/4/3
f 213/3/3 205/3/3 204/3/3
f 214/3/3 206/3/3 213/3/3
f 215/3/3 206/3/3 214/3/3
f 217/1/3 210/1/3 209/1/3
f 217/1/3 209/1/3 208/1/3
f 218/2/3 211/2/3 210/2/3
f 218/1/3 210/1/3 217/1/3
f 219/2/3 211/2/3 218/2/3
f 220/3/3 215/3/3 214/3/3
f 221/3/3 215/3/3 220/3/3
f 223/2/3 217/2/3 216/2/3
f 224/1/3 218/1/3 217/1/3
f 224/2/3 217/2/3 223/2/3
f 225/1/3 218/1/3 224/1/3
f 226/2/3 222/2/3 221/2/3
f 227/1/3 223/1/3 222/1/3
f 227/2/3 222/2/3 226/2/3
f 228/1/3 223/1/3 227/1/3
f 235/1/3 230/1/3 229/1/3
f 236/2/3 231/2/3 230/2/3
f 236/1/3 230/1/3 235/1/3
f 237/2/3 231/2/3 236/2/3
f 242/4/3 233/4/3 232/4/3
f 243/3/3 234/3/3 233/3/3
f 243/4/3 233/4/3 242/4/3
f 244/3/3 234/3/3 243/3/3
f 245/2/3 239/2/3 238/2/3
f 246/1/3 240/1/3 239/1/3
f 246/2/3 239/2/3 245/2/3
f 247/1/3 240/1/3 246/1/3
f 249/4/3 242/4/3 241/4/3
f 250/4/3 242/4/3 249/4/3
f 255/1/3 248/1/3 247/1/3
f 256/1/3 248/1/3 255/1/3
f 257/4/3 251/4/3 250/4/3
f 258/3/3 252/3/3 251/3/3
f 258/4/3 251/4/3 257/4/3
f 259/3/3 252/3/3 258/3/3
f 262/2/3 254/2/3 253/2/3
f 263/1/3 255/1/3 254/1/3
f 263/2/3 254/2/3 262/2/3
f 264/1/3 255/1/3 263/1/3
f 265/1/3 261/1/3 260/1/3
f 266/1/3 261/1/3 265/1/3
f 267/1/4 268/1/4 273/1/4
f 268/2/4 269/2/4 274/2/4
f 273/1/4 268/1/4 274/1/4
f 274/2/4 269/2/4 275/2/4
f 270/4/4 271/4/4 280/4/4
f 271/3/4 272/3/4 281/3/4
f 280/4/4 271/4/4 281/4/4
f 281/3/4 272/3/4 282/3/4
f 276/2/4 277/2/4 283/2/4
f 277/1/4 278/1/4 284/1/4
f 283/2/4 277/2/4 284/2/4
f 284/1/4 278/1/4 285/1/4
f 279/4/4 280/4/4 287/4/4
f 287/4/4 280/4/4 288/4/4
f 285/1/4 286/1/4 293/1/4
f 293/1/4 286/1/4 294/1/4
f 288/4/4 289/4/4 295/4/4
f 289/3/4 290/3/4 296/3/4
f 295/4/4 289/4/4 296/4/4
f 296/3/4 290/3/4 297/3/4
f 291/2/4 292/2/4 300/2/4
f 292/1/4 293/1/4 301/1/4
f 300/2/4 292/2/4 301/2/4
f 301/1/4 293/1/4 302/1/4
f 298/1/4 299/1/4 303/1/4
f 303/1/4 299/1/4 304/1/4
f 305/1/4 306/1/4 309/1/4
f 306/2/4 307/2/4 310/2/4
f 309/1/4 306/1/4 310/1/4
f 310/2/4 307/2/4 311/2/4
f 308/3/4 309/3/4 316/3/4
f 316/3/4 309/3/4 317/3/4
f 311/2/4 312/2/4 318/2/4
f 312/1/4 313/1/4 319/1/4
f 318/2/4 312/2/4 319/2/4
f 319/1/4 313/1/4 320/1/4
f 314/4/4 315/4/4 323/4/4
f 316/3/4 317/3/4 324/3/4
f 323/4/4 315/4/4 324/4/4
f 315/3/4 316/3/4 324/3/4
f 324/3/4 317/3/4 325/3/4
f 325/3/4 317/3/4 326/3/4
f 319/1/4 320/1/4 329/1/4
f 320/1/4 321/1/4 329/1/4
f 329/1/4 321/1/4 330/1/4
f 321/2/4 322/2/4 331/2/4
f 330/1/4 321/1/4 331/1/4
f 331/2/4 322/2/4 332/2/4
f 325/3/4 326/3/4 333/3/4
f 333/3/4 326/3/4 334/3/4
f 327/1/4 328/1/4 336/1/4
f 328/2/4 329/2/4 337/2/4
f 336/1/4 328/1/4 337/1/4
f 329/1/4 330/1/4 338/1/4
f 337/2/4 329/2/4 338/2/4
f 338/1/4 330/1/4 339/1/4
f 334/2/4 335/2/4 340/2/4
f 335/1/4 336/1/4 341/1/4
f 340/2/4 335/2/4 341/2/4
f 341/1/4 336/1/4 342/1/4
f 343/2/4 344/2/4 346/2/4
f 344/1/4 345/1/4 347/1/4
f 346/2/4 344/2/4 347/2/4
f 347/1/4 345/1/4 348/1/4
f 346/1/4 347/1/4 350/1/4
f 348/2/4 349/2/4 351/2/4
f 350/1/4 347/1/4 351/1/4
f 347/2/4 348/2/4 351/2/4
f 351/2/4 349/2/4 352/2/4
f 352/2/4 349/2/4 353/2/4
f 350/2/4 351/2/4 354/2/4
f 351/1/4 352/1/4 355/1/4
f 354/2/4 351/2/4 355/2/4
f 355/1/4 352/1/4 356/1/4
f 359/4/5 358/4/5 357/4/5
f 360/4/5 358/4/5 359/4/5
f 364/4/5 362/4/5 361/4/5
f 365/4/5 362/4/5 364/4/5
f 367/4/5 364/4/5 363/4/5
f 368/4/5 364/4/5 367/4/5
f 369/4/5 366/4/5 365/4/5
f 370/4/5 366/4/5 369/4/5
f 371/4/5 369/4/5 368/4/5
f 372/4/5 369/4/5 371/4/5
f 377/3/5 374/3/5 373/3/5
f 378/3/5 374/3/5 377/3/5
f 379/3/5 376/3/5 375/3/5
f 380/3/5 376/3/5 379/3/5
f 385/3/5 382/3/5 381/3/5
f 386/3/5 382/3/5 385/3/5
f 387/3/5 384/3/5 383/3/5
f 388/3/5 384/3/5 387/3/5
f 394/1/5 390/1/5 389/1/5
f 395/2/5 391/2/5 390/2/5
f 395/1/5 390/1/5 394/1/5
f 396/1/5 392/1/5 391/1/5
f 396/2/5 391/2/5 395/2/5
f 397/1/5 392/1/5 396/1/5
f 399/1/5 394/1/5 393/1/5
f 400/1/5 394/1/5 399/1/5
f 401/2/5 398/2/5 397/2/5
f 402/2/5 398/2/5 401/2/5
f 403/2/5 400/2/5 399/2/5
f 404/2/5 400/2/5 403/2/5
f 405/1/5 402/1/5 401/1/5
f 406/1/5 402/1/5 405/1/5
f 407/1/5 404/1/5 403/1/5
f 408/1/5 404/1/5 407/1/5
f 411/2/5 406/2/5 405/2/5
f 412/2/5 406/2/5 411/2/5
f 413/2/5 409/2/5 408/2/5
f 414/1/5 410/1/5 409/1/5
f 414/2/5 409/2/5 413/2/5
f 415/2/5 411/2/5 410/2/5
f 415/1/5 410/1/5 414/1/5
f 416/2/5 411/2/5 415/2/5
f 417/2/6 418/2/6 422/2/6
f 422/2/6 418/2/6 423/2/6
f 419/2/6 420/2/6 424/2/6
f 424/2/6 420/2/6 425/2/6
f 421/2/6 422/2/6 427/2/6
f 427/2/6 422/2/6 428/2/6
f 425/1/6 426/1/6 429/1/6
f 429/1/6 426/1/6 430/1/6
f 431/2/6 432/2/6 435/2/6
f 435/2/6 432/2/6 436/2/6
f 433/1/6 434/1/6 439/1/6
f 439/1/6 434/1/6 440/1/6
f 436/1/6 437/1/6 441/1/6
f 441/1/6 437/1/6 442/1/6
f 438/1/6 439/1/6 443/1/6
f 443/1/6 439/1/6 444/1/6
f 445/2/6 446/2/6 447/2/6
f 447/2/6 446/2/6 448/2/6
f 449/1/6 450/1/6 451/1/6
f 451/1/6 450/1/6 452/1/6
f 453/2/6 454/2/6 455/2/6
f 455/2/6 454/2/6 456/2/6
f 457/2/6 458/2/6 459/2/6
f 459/2/6 458/2/6 460/2/6
f 461/2/6 462/2/6 465/2/6
f 465/2/6 462/2/6 466/2/6
f 463/1/6 464/1/6 467/1/6
f 467/1/6 464/1/6 468/1/6
f 469/1/6 470/1/6 473/1/6
f 473/1/6 470/1/6 474/1/6
f 471/1/6 472/1/6 475/1/6
f 475/1/6 472/1/6 476/1/6
f 477/2/6 478/2/6 480/2/6
f 480/2/6 478/2/6 481/2/6
f 479/1/6 480/1/6 483/1/6
f 483/1/6 480/1/6 484/1/6
f 481/1/6 482/1/6 485/1/6
f 485/1/6 482/1/6 486/1/6
f 484/2/6 485/2/6 487/2/6
f 487/2/6 485/2/6 488/2/6
f 489/1/6 490/1/6 491/1/6
f 491/1/6 490/1/6 492/1/6
