# MagicaVoxel @ Ephtracy

# group
o 

# material
mtllib Hacha.mtl
usemtl palette

# normals
vn -1 0 0
vn 1 0 0
vn 0 0 1
vn 0 0 -1
vn 0 -1 0
vn 0 1 0

# texcoords
vt 0.373047 0.5
vt 0.537109 0.5
vt 0.970703 0.5
vt 0.978516 0.5

# verts
v -1.1 2.2 0.0999999
v -1.1 2.2 -7.45058e-08
v -1.1 2.4 0.0999999
v -1.1 2.4 -7.45058e-08
v -1 2.1 0.0999999
v -1 2.1 -7.45058e-08
v -1 2.2 0.0999999
v -1 2.2 -7.45058e-08
v -1 2.4 0.0999999
v -1 2.4 -7.45058e-08
v -1 2.6 0.0999999
v -1 2.6 -7.45058e-08
v -0.9 2.6 0.0999999
v -0.9 2.6 -7.45058e-08
v -0.9 2.8 0.0999999
v -0.9 2.8 -7.45058e-08
v -0.8 2.8 0.0999999
v -0.8 2.8 -7.45058e-08
v -0.8 2.9 0.0999999
v -0.8 2.9 -7.45058e-08
v -0.7 2.1 0.0999999
v -0.7 2.1 -7.45058e-08
v -0.7 2.2 0.0999999
v -0.7 2.2 -7.45058e-08
v -0.6 2 0.0999999
v -0.6 2 -7.45058e-08
v -0.6 2.1 0.0999999
v -0.6 2.1 -7.45058e-08
v -0.5 1.9 0.0999999
v -0.5 1.9 -7.45058e-08
v -0.5 2 0.0999999
v -0.5 2 -7.45058e-08
v -0.4 1.8 0.0999999
v -0.4 1.8 -7.45058e-08
v -0.4 1.9 0.0999999
v -0.4 1.9 -7.45058e-08
v -0.3 1.7 0.0999999
v -0.3 1.7 -7.45058e-08
v -0.3 1.8 0.0999999
v -0.3 1.8 -7.45058e-08
v -0.2 1.6 0.0999999
v -0.2 1.6 -7.45058e-08
v -0.2 1.7 0.0999999
v -0.2 1.7 -7.45058e-08
v -0.1 1.5 0.0999999
v -0.1 1.5 -7.45058e-08
v -0.1 1.6 0.0999999
v -0.1 1.6 -7.45058e-08
v 0 1.4 0.0999999
v 0 1.4 -7.45058e-08
v 0 1.5 0.0999999
v 0 1.5 -7.45058e-08
v 0.1 1.3 0.0999999
v 0.1 1.3 -7.45058e-08
v 0.1 1.4 0.0999999
v 0.1 1.4 -7.45058e-08
v -0.8 2.1 0.0999999
v -0.8 2.1 -7.45058e-08
v -0.8 2.2 0.0999999
v -0.8 2.2 -7.45058e-08
v -0.6 2.8 0.0999999
v -0.6 2.8 -7.45058e-08
v -0.6 2.9 0.0999999
v -0.6 2.9 -7.45058e-08
v -0.5 2.2 0.0999999
v -0.5 2.2 -7.45058e-08
v -0.5 2.3 0.0999999
v -0.5 2.3 -7.45058e-08
v -0.5 2.7 0.0999999
v -0.5 2.7 -7.45058e-08
v -0.5 2.8 0.0999999
v -0.5 2.8 -7.45058e-08
v -0.4 2.1 0.0999999
v -0.4 2.1 -7.45058e-08
v -0.4 2.2 0.0999999
v -0.4 2.2 -7.45058e-08
v -0.4 2.3 0.0999999
v -0.4 2.3 -7.45058e-08
v -0.4 2.4 0.0999999
v -0.4 2.4 -7.45058e-08
v -0.4 2.6 0.0999999
v -0.4 2.6 -7.45058e-08
v -0.4 2.7 0.0999999
v -0.4 2.7 -7.45058e-08
v -0.3 2 0.0999999
v -0.3 2 -7.45058e-08
v -0.3 2.1 0.0999999
v -0.3 2.1 -7.45058e-08
v -0.3 2.4 0.0999999
v -0.3 2.4 -7.45058e-08
v -0.3 2.6 0.0999999
v -0.3 2.6 -7.45058e-08
v -0.2 1.9 0.0999999
v -0.2 1.9 -7.45058e-08
v -0.2 2 0.0999999
v -0.2 2 -7.45058e-08
v -0.1 1.8 0.0999999
v -0.1 1.8 -7.45058e-08
v -0.1 1.9 0.0999999
v -0.1 1.9 -7.45058e-08
v 0 1.7 0.0999999
v 0 1.7 -7.45058e-08
v 0 1.8 0.0999999
v 0 1.8 -7.45058e-08
v 0.1 1.6 0.0999999
v 0.1 1.6 -7.45058e-08
v 0.1 1.7 0.0999999
v 0.1 1.7 -7.45058e-08
v 0.2 1.5 0.0999999
v 0.2 1.5 -7.45058e-08
v 0.2 1.6 0.0999999
v 0.2 1.6 -7.45058e-08
v 0.3 1.3 0.0999999
v 0.3 1.3 -7.45058e-08
v 0.3 1.5 0.0999999
v 0.3 1.5 -7.45058e-08
v -1.1 2.2 0.0999999
v -1.1 2.4 0.0999999
v -1 2.1 0.0999999
v -1 2.2 0.0999999
v -1 2.4 0.0999999
v -1 2.6 0.0999999
v -0.9 2.4 0.0999999
v -0.9 2.5 0.0999999
v -0.9 2.6 0.0999999
v -0.9 2.8 0.0999999
v -0.8 2.1 0.0999999
v -0.8 2.2 0.0999999
v -0.8 2.3 0.0999999
v -0.8 2.5 0.0999999
v -0.8 2.6 0.0999999
v -0.8 2.8 0.0999999
v -0.8 2.9 0.0999999
v -0.7 2.1 0.0999999
v -0.7 2.2 0.0999999
v -0.7 2.3 0.0999999
v -0.7 2.4 0.0999999
v -0.6 2 0.0999999
v -0.6 2.1 0.0999999
v -0.6 2.2 0.0999999
v -0.6 2.3 0.0999999
v -0.6 2.4 0.0999999
v -0.6 2.7 0.0999999
v -0.6 2.8 0.0999999
v -0.6 2.9 0.0999999
v -0.5 1.9 0.0999999
v -0.5 2 0.0999999
v -0.5 2.1 0.0999999
v -0.5 2.2 0.0999999
v -0.5 2.3 0.0999999
v -0.5 2.6 0.0999999
v -0.5 2.7 0.0999999
v -0.5 2.8 0.0999999
v -0.4 1.8 0.0999999
v -0.4 1.9 0.0999999
v -0.4 2 0.0999999
v -0.4 2.1 0.0999999
v -0.4 2.2 0.0999999
v -0.4 2.3 0.0999999
v -0.4 2.4 0.0999999
v -0.4 2.6 0.0999999
v -0.4 2.7 0.0999999
v -0.3 1.7 0.0999999
v -0.3 1.8 0.0999999
v -0.3 1.9 0.0999999
v -0.3 2 0.0999999
v -0.3 2.1 0.0999999
v -0.3 2.4 0.0999999
v -0.3 2.6 0.0999999
v -0.2 1.6 0.0999999
v -0.2 1.7 0.0999999
v -0.2 1.8 0.0999999
v -0.2 1.9 0.0999999
v -0.2 2 0.0999999
v -0.1 1.5 0.0999999
v -0.1 1.6 0.0999999
v -0.1 1.7 0.0999999
v -0.1 1.8 0.0999999
v -0.1 1.9 0.0999999
v 0 1.4 0.0999999
v 0 1.5 0.0999999
v 0 1.6 0.0999999
v 0 1.7 0.0999999
v 0 1.8 0.0999999
v 0.1 1.3 0.0999999
v 0.1 1.4 0.0999999
v 0.1 1.5 0.0999999
v 0.1 1.6 0.0999999
v 0.1 1.7 0.0999999
v 0.2 1.4 0.0999999
v 0.2 1.5 0.0999999
v 0.2 1.6 0.0999999
v 0.3 1.3 0.0999999
v 0.3 1.5 0.0999999
v -1.1 2.2 -7.45058e-08
v -1.1 2.4 -7.45058e-08
v -1 2.1 -7.45058e-08
v -1 2.2 -7.45058e-08
v -1 2.4 -7.45058e-08
v -1 2.6 -7.45058e-08
v -0.9 2.4 -7.45058e-08
v -0.9 2.5 -7.45058e-08
v -0.9 2.6 -7.45058e-08
v -0.9 2.8 -7.45058e-08
v -0.8 2.1 -7.45058e-08
v -0.8 2.2 -7.45058e-08
v -0.8 2.3 -7.45058e-08
v -0.8 2.5 -7.45058e-08
v -0.8 2.6 -7.45058e-08
v -0.8 2.8 -7.45058e-08
v -0.8 2.9 -7.45058e-08
v -0.7 2.1 -7.45058e-08
v -0.7 2.2 -7.45058e-08
v -0.7 2.3 -7.45058e-08
v -0.7 2.4 -7.45058e-08
v -0.6 2 -7.45058e-08
v -0.6 2.1 -7.45058e-08
v -0.6 2.2 -7.45058e-08
v -0.6 2.3 -7.45058e-08
v -0.6 2.4 -7.45058e-08
v -0.6 2.7 -7.45058e-08
v -0.6 2.8 -7.45058e-08
v -0.6 2.9 -7.45058e-08
v -0.5 1.9 -7.45058e-08
v -0.5 2 -7.45058e-08
v -0.5 2.1 -7.45058e-08
v -0.5 2.2 -7.45058e-08
v -0.5 2.3 -7.45058e-08
v -0.5 2.6 -7.45058e-08
v -0.5 2.7 -7.45058e-08
v -0.5 2.8 -7.45058e-08
v -0.4 1.8 -7.45058e-08
v -0.4 1.9 -7.45058e-08
v -0.4 2 -7.45058e-08
v -0.4 2.1 -7.45058e-08
v -0.4 2.2 -7.45058e-08
v -0.4 2.3 -7.45058e-08
v -0.4 2.4 -7.45058e-08
v -0.4 2.6 -7.45058e-08
v -0.4 2.7 -7.45058e-08
v -0.3 1.7 -7.45058e-08
v -0.3 1.8 -7.45058e-08
v -0.3 1.9 -7.45058e-08
v -0.3 2 -7.45058e-08
v -0.3 2.1 -7.45058e-08
v -0.3 2.4 -7.45058e-08
v -0.3 2.6 -7.45058e-08
v -0.2 1.6 -7.45058e-08
v -0.2 1.7 -7.45058e-08
v -0.2 1.8 -7.45058e-08
v -0.2 1.9 -7.45058e-08
v -0.2 2 -7.45058e-08
v -0.1 1.5 -7.45058e-08
v -0.1 1.6 -7.45058e-08
v -0.1 1.7 -7.45058e-08
v -0.1 1.8 -7.45058e-08
v -0.1 1.9 -7.45058e-08
v 0 1.4 -7.45058e-08
v 0 1.5 -7.45058e-08
v 0 1.6 -7.45058e-08
v 0 1.7 -7.45058e-08
v 0 1.8 -7.45058e-08
v 0.1 1.3 -7.45058e-08
v 0.1 1.4 -7.45058e-08
v 0.1 1.5 -7.45058e-08
v 0.1 1.6 -7.45058e-08
v 0.1 1.7 -7.45058e-08
v 0.2 1.4 -7.45058e-08
v 0.2 1.5 -7.45058e-08
v 0.2 1.6 -7.45058e-08
v 0.3 1.3 -7.45058e-08
v 0.3 1.5 -7.45058e-08
v 0.1 1.3 0.0999999
v 0.3 1.3 0.0999999
v 0.1 1.3 -7.45058e-08
v 0.3 1.3 -7.45058e-08
v 0 1.4 0.0999999
v 0.1 1.4 0.0999999
v 0 1.4 -7.45058e-08
v 0.1 1.4 -7.45058e-08
v -0.1 1.5 0.0999999
v 0 1.5 0.0999999
v -0.1 1.5 -7.45058e-08
v 0 1.5 -7.45058e-08
v -0.2 1.6 0.0999999
v -0.1 1.6 0.0999999
v -0.2 1.6 -7.45058e-08
v -0.1 1.6 -7.45058e-08
v -0.3 1.7 0.0999999
v -0.2 1.7 0.0999999
v -0.3 1.7 -7.45058e-08
v -0.2 1.7 -7.45058e-08
v -0.4 1.8 0.0999999
v -0.3 1.8 0.0999999
v -0.4 1.8 -7.45058e-08
v -0.3 1.8 -7.45058e-08
v -0.5 1.9 0.0999999
v -0.4 1.9 0.0999999
v -0.5 1.9 -7.45058e-08
v -0.4 1.9 -7.45058e-08
v -0.6 2 0.0999999
v -0.5 2 0.0999999
v -0.6 2 -7.45058e-08
v -0.5 2 -7.45058e-08
v -1 2.1 0.0999999
v -0.8 2.1 0.0999999
v -0.7 2.1 0.0999999
v -0.6 2.1 0.0999999
v -1 2.1 -7.45058e-08
v -0.8 2.1 -7.45058e-08
v -0.7 2.1 -7.45058e-08
v -0.6 2.1 -7.45058e-08
v -1.1 2.2 0.0999999
v -1 2.2 0.0999999
v -0.8 2.2 0.0999999
v -0.7 2.2 0.0999999
v -1.1 2.2 -7.45058e-08
v -1 2.2 -7.45058e-08
v -0.8 2.2 -7.45058e-08
v -0.7 2.2 -7.45058e-08
v -0.5 2.3 0.0999999
v -0.4 2.3 0.0999999
v -0.5 2.3 -7.45058e-08
v -0.4 2.3 -7.45058e-08
v -0.4 2.4 0.0999999
v -0.3 2.4 0.0999999
v -0.4 2.4 -7.45058e-08
v -0.3 2.4 -7.45058e-08
v 0.2 1.5 0.0999999
v 0.3 1.5 0.0999999
v 0.2 1.5 -7.45058e-08
v 0.3 1.5 -7.45058e-08
v 0.1 1.6 0.0999999
v 0.2 1.6 0.0999999
v 0.1 1.6 -7.45058e-08
v 0.2 1.6 -7.45058e-08
v 0 1.7 0.0999999
v 0.1 1.7 0.0999999
v 0 1.7 -7.45058e-08
v 0.1 1.7 -7.45058e-08
v -0.1 1.8 0.0999999
v 0 1.8 0.0999999
v -0.1 1.8 -7.45058e-08
v 0 1.8 -7.45058e-08
v -0.2 1.9 0.0999999
v -0.1 1.9 0.0999999
v -0.2 1.9 -7.45058e-08
v -0.1 1.9 -7.45058e-08
v -0.3 2 0.0999999
v -0.2 2 0.0999999
v -0.3 2 -7.45058e-08
v -0.2 2 -7.45058e-08
v -0.4 2.1 0.0999999
v -0.3 2.1 0.0999999
v -0.4 2.1 -7.45058e-08
v -0.3 2.1 -7.45058e-08
v -0.5 2.2 0.0999999
v -0.4 2.2 0.0999999
v -0.5 2.2 -7.45058e-08
v -0.4 2.2 -7.45058e-08
v -1.1 2.4 0.0999999
v -1 2.4 0.0999999
v -1.1 2.4 -7.45058e-08
v -1 2.4 -7.45058e-08
v -1 2.6 0.0999999
v -0.9 2.6 0.0999999
v -0.4 2.6 0.0999999
v -0.3 2.6 0.0999999
v -1 2.6 -7.45058e-08
v -0.9 2.6 -7.45058e-08
v -0.4 2.6 -7.45058e-08
v -0.3 2.6 -7.45058e-08
v -0.5 2.7 0.0999999
v -0.4 2.7 0.0999999
v -0.5 2.7 -7.45058e-08
v -0.4 2.7 -7.45058e-08
v -0.9 2.8 0.0999999
v -0.8 2.8 0.0999999
v -0.6 2.8 0.0999999
v -0.5 2.8 0.0999999
v -0.9 2.8 -7.45058e-08
v -0.8 2.8 -7.45058e-08
v -0.6 2.8 -7.45058e-08
v -0.5 2.8 -7.45058e-08
v -0.8 2.9 0.0999999
v -0.6 2.9 0.0999999
v -0.8 2.9 -7.45058e-08
v -0.6 2.9 -7.45058e-08

# faces
f 3/4/1 2/4/1 1/4/1
f 4/4/1 2/4/1 3/4/1
f 7/4/1 6/4/1 5/4/1
f 8/4/1 6/4/1 7/4/1
f 11/2/1 10/2/1 9/2/1
f 12/2/1 10/2/1 11/2/1
f 15/4/1 14/4/1 13/4/1
f 16/4/1 14/4/1 15/4/1
f 19/4/1 18/4/1 17/4/1
f 20/4/1 18/4/1 19/4/1
f 23/2/1 22/2/1 21/2/1
f 24/2/1 22/2/1 23/2/1
f 27/2/1 26/2/1 25/2/1
f 28/2/1 26/2/1 27/2/1
f 31/2/1 30/2/1 29/2/1
f 32/2/1 30/2/1 31/2/1
f 35/2/1 34/2/1 33/2/1
f 36/2/1 34/2/1 35/2/1
f 39/2/1 38/2/1 37/2/1
f 40/2/1 38/2/1 39/2/1
f 43/2/1 42/2/1 41/2/1
f 44/2/1 42/2/1 43/2/1
f 47/2/1 46/2/1 45/2/1
f 48/2/1 46/2/1 47/2/1
f 51/2/1 50/2/1 49/2/1
f 52/2/1 50/2/1 51/2/1
f 55/2/1 54/2/1 53/2/1
f 56/2/1 54/2/1 55/2/1
f 57/4/2 58/4/2 59/4/2
f 59/4/2 58/4/2 60/4/2
f 61/4/2 62/4/2 63/4/2
f 63/4/2 62/4/2 64/4/2
f 65/2/2 66/2/2 67/2/2
f 67/2/2 66/2/2 68/2/2
f 69/4/2 70/4/2 71/4/2
f 71/4/2 70/4/2 72/4/2
f 73/2/2 74/2/2 75/2/2
f 75/2/2 74/2/2 76/2/2
f 77/4/2 78/4/2 79/4/2
f 79/4/2 78/4/2 80/4/2
f 81/4/2 82/4/2 83/4/2
f 83/4/2 82/4/2 84/4/2
f 85/2/2 86/2/2 87/2/2
f 87/2/2 86/2/2 88/2/2
f 89/4/2 90/4/2 91/4/2
f 91/4/2 90/4/2 92/4/2
f 93/2/2 94/2/2 95/2/2
f 95/2/2 94/2/2 96/2/2
f 97/2/2 98/2/2 99/2/2
f 99/2/2 98/2/2 100/2/2
f 101/2/2 102/2/2 103/2/2
f 103/2/2 102/2/2 104/2/2
f 105/2/2 106/2/2 107/2/2
f 107/2/2 106/2/2 108/2/2
f 109/2/2 110/2/2 111/2/2
f 111/2/2 110/2/2 112/2/2
f 113/2/2 114/2/2 115/2/2
f 115/2/2 114/2/2 116/2/2
f 120/4/3 118/4/3 117/4/3
f 121/4/3 118/4/3 120/4/3
f 123/3/3 121/3/3 120/3/3
f 123/2/3 122/2/3 121/2/3
f 124/2/3 122/2/3 123/2/3
f 125/2/3 122/2/3 124/2/3
f 127/4/3 120/4/3 119/4/3
f 128/3/3 123/3/3 120/3/3
f 128/4/3 120/4/3 127/4/3
f 128/3/3 124/3/3 123/3/3
f 129/3/3 124/3/3 128/3/3
f 130/2/3 125/2/3 124/2/3
f 130/3/3 124/3/3 129/3/3
f 131/4/3 126/4/3 125/4/3
f 131/2/3 125/2/3 130/2/3
f 132/4/3 126/4/3 131/4/3
f 135/2/3 129/2/3 128/2/3
f 136/3/3 130/3/3 129/3/3
f 136/3/3 132/3/3 131/3/3
f 136/2/3 129/2/3 135/2/3
f 136/3/3 131/3/3 130/3/3
f 137/3/3 132/3/3 136/3/3
f 139/2/3 135/2/3 134/2/3
f 140/1/3 136/1/3 135/1/3
f 140/2/3 135/2/3 139/2/3
f 141/2/3 137/2/3 136/2/3
f 141/1/3 136/1/3 140/1/3
f 142/3/3 132/3/3 137/3/3
f 142/2/3 137/2/3 141/2/3
f 143/3/3 132/3/3 142/3/3
f 144/4/3 133/4/3 132/4/3
f 144/3/3 132/3/3 143/3/3
f 145/4/3 133/4/3 144/4/3
f 147/2/3 139/2/3 138/2/3
f 148/1/3 140/1/3 139/1/3
f 148/2/3 139/2/3 147/2/3
f 149/2/3 141/2/3 140/2/3
f 149/1/3 140/1/3 148/1/3
f 150/4/3 142/4/3 141/4/3
f 150/2/3 141/2/3 149/2/3
f 151/3/3 143/3/3 142/3/3
f 152/4/3 144/4/3 143/4/3
f 152/3/3 143/3/3 151/3/3
f 153/4/3 144/4/3 152/4/3
f 155/2/3 147/2/3 146/2/3
f 156/1/3 148/1/3 147/1/3
f 156/2/3 147/2/3 155/2/3
f 157/2/3 149/2/3 148/2/3
f 157/1/3 148/1/3 156/1/3
f 158/2/3 149/2/3 157/2/3
f 159/4/3 142/4/3 150/4/3
f 160/3/3 151/3/3 142/3/3
f 160/4/3 142/4/3 159/4/3
f 161/4/3 152/4/3 151/4/3
f 161/3/3 151/3/3 160/3/3
f 162/4/3 152/4/3 161/4/3
f 164/2/3 155/2/3 154/2/3
f 165/1/3 156/1/3 155/1/3
f 165/2/3 155/2/3 164/2/3
f 166/2/3 157/2/3 156/2/3
f 166/1/3 156/1/3 165/1/3
f 167/2/3 157/2/3 166/2/3
f 168/4/3 161/4/3 160/4/3
f 169/4/3 161/4/3 168/4/3
f 171/2/3 164/2/3 163/2/3
f 172/1/3 165/1/3 164/1/3
f 172/2/3 164/2/3 171/2/3
f 173/2/3 166/2/3 165/2/3
f 173/1/3 165/1/3 172/1/3
f 174/2/3 166/2/3 173/2/3
f 176/2/3 171/2/3 170/2/3
f 177/1/3 172/1/3 171/1/3
f 177/2/3 171/2/3 176/2/3
f 178/2/3 173/2/3 172/2/3
f 178/1/3 172/1/3 177/1/3
f 179/2/3 173/2/3 178/2/3
f 181/2/3 176/2/3 175/2/3
f 182/1/3 177/1/3 176/1/3
f 182/2/3 176/2/3 181/2/3
f 183/2/3 178/2/3 177/2/3
f 183/1/3 177/1/3 182/1/3
f 184/2/3 178/2/3 183/2/3
f 186/2/3 181/2/3 180/2/3
f 187/1/3 182/1/3 181/1/3
f 187/2/3 181/2/3 186/2/3
f 188/2/3 183/2/3 182/2/3
f 188/1/3 182/1/3 187/1/3
f 189/2/3 183/2/3 188/2/3
f 190/2/3 186/2/3 185/2/3
f 190/1/3 187/1/3 186/1/3
f 191/2/3 188/2/3 187/2/3
f 191/1/3 187/1/3 190/1/3
f 192/2/3 188/2/3 191/2/3
f 193/2/3 190/2/3 185/2/3
f 193/2/3 191/2/3 190/2/3
f 194/2/3 191/2/3 193/2/3
f 195/4/4 196/4/4 198/4/4
f 198/4/4 196/4/4 199/4/4
f 198/3/4 199/3/4 201/3/4
f 199/2/4 200/2/4 201/2/4
f 201/2/4 200/2/4 202/2/4
f 202/2/4 200/2/4 203/2/4
f 197/4/4 198/4/4 205/4/4
f 198/3/4 201/3/4 206/3/4
f 205/4/4 198/4/4 206/4/4
f 201/3/4 202/3/4 206/3/4
f 206/3/4 202/3/4 207/3/4
f 202/2/4 203/2/4 208/2/4
f 207/3/4 202/3/4 208/3/4
f 203/4/4 204/4/4 209/4/4
f 208/2/4 203/2/4 209/2/4
f 209/4/4 204/4/4 210/4/4
f 206/2/4 207/2/4 213/2/4
f 207/3/4 208/3/4 214/3/4
f 209/3/4 210/3/4 214/3/4
f 213/2/4 207/2/4 214/2/4
f 208/3/4 209/3/4 214/3/4
f 214/3/4 210/3/4 215/3/4
f 212/2/4 213/2/4 217/2/4
f 213/1/4 214/1/4 218/1/4
f 217/2/4 213/2/4 218/2/4
f 214/2/4 215/2/4 219/2/4
f 218/1/4 214/1/4 219/1/4
f 215/3/4 210/3/4 220/3/4
f 219/2/4 215/2/4 220/2/4
f 220/3/4 210/3/4 221/3/4
f 210/4/4 211/4/4 222/4/4
f 221/3/4 210/3/4 222/3/4
f 222/4/4 211/4/4 223/4/4
f 216/2/4 217/2/4 225/2/4
f 217/1/4 218/1/4 226/1/4
f 225/2/4 217/2/4 226/2/4
f 218/2/4 219/2/4 227/2/4
f 226/1/4 218/1/4 227/1/4
f 219/4/4 220/4/4 228/4/4
f 227/2/4 219/2/4 228/2/4
f 220/3/4 221/3/4 229/3/4
f 221/4/4 222/4/4 230/4/4
f 229/3/4 221/3/4 230/3/4
f 230/4/4 222/4/4 231/4/4
f 224/2/4 225/2/4 233/2/4
f 225/1/4 226/1/4 234/1/4
f 233/2/4 225/2/4 234/2/4
f 226/2/4 227/2/4 235/2/4
f 234/1/4 226/1/4 235/1/4
f 235/2/4 227/2/4 236/2/4
f 228/4/4 220/4/4 237/4/4
f 220/3/4 229/3/4 238/3/4
f 237/4/4 220/4/4 238/4/4
f 229/4/4 230/4/4 239/4/4
f 238/3/4 229/3/4 239/3/4
f 239/4/4 230/4/4 240/4/4
f 232/2/4 233/2/4 242/2/4
f 233/1/4 234/1/4 243/1/4
f 242/2/4 233/2/4 243/2/4
f 234/2/4 235/2/4 244/2/4
f 243/1/4 234/1/4 244/1/4
f 244/2/4 235/2/4 245/2/4
f 238/4/4 239/4/4 246/4/4
f 246/4/4 239/4/4 247/4/4
f 241/2/4 242/2/4 249/2/4
f 242/1/4 243/1/4 250/1/4
f 249/2/4 242/2/4 250/2/4
f 243/2/4 244/2/4 251/2/4
f 250/1/4 243/1/4 251/1/4
f 251/2/4 244/2/4 252/2/4
f 248/2/4 249/2/4 254/2/4
f 249/1/4 250/1/4 255/1/4
f 254/2/4 249/2/4 255/2/4
f 250/2/4 251/2/4 256/2/4
f 255/1/4 250/1/4 256/1/4
f 256/2/4 251/2/4 257/2/4
f 253/2/4 254/2/4 259/2/4
f 254/1/4 255/1/4 260/1/4
f 259/2/4 254/2/4 260/2/4
f 255/2/4 256/2/4 261/2/4
f 260/1/4 255/1/4 261/1/4
f 261/2/4 256/2/4 262/2/4
f 258/2/4 259/2/4 264/2/4
f 259/1/4 260/1/4 265/1/4
f 264/2/4 259/2/4 265/2/4
f 260/2/4 261/2/4 266/2/4
f 265/1/4 260/1/4 266/1/4
f 266/2/4 261/2/4 267/2/4
f 263/2/4 264/2/4 268/2/4
f 264/1/4 265/1/4 268/1/4
f 265/2/4 266/2/4 269/2/4
f 268/1/4 265/1/4 269/1/4
f 269/2/4 266/2/4 270/2/4
f 263/2/4 268/2/4 271/2/4
f 268/2/4 269/2/4 271/2/4
f 271/2/4 269/2/4 272/2/4
f 275/2/5 274/2/5 273/2/5
f 276/2/5 274/2/5 275/2/5
f 279/2/5 278/2/5 277/2/5
f 280/2/5 278/2/5 279/2/5
f 283/2/5 282/2/5 281/2/5
f 284/2/5 282/2/5 283/2/5
f 287/2/5 286/2/5 285/2/5
f 288/2/5 286/2/5 287/2/5
f 291/2/5 290/2/5 289/2/5
f 292/2/5 290/2/5 291/2/5
f 295/2/5 294/2/5 293/2/5
f 296/2/5 294/2/5 295/2/5
f 299/2/5 298/2/5 297/2/5
f 300/2/5 298/2/5 299/2/5
f 303/2/5 302/2/5 301/2/5
f 304/2/5 302/2/5 303/2/5
f 309/4/5 306/4/5 305/4/5
f 310/4/5 306/4/5 309/4/5
f 311/2/5 308/2/5 307/2/5
f 312/2/5 308/2/5 311/2/5
f 317/4/5 314/4/5 313/4/5
f 318/4/5 314/4/5 317/4/5
f 319/2/5 316/2/5 315/2/5
f 320/2/5 316/2/5 319/2/5
f 323/4/5 322/4/5 321/4/5
f 324/4/5 322/4/5 323/4/5
f 327/4/5 326/4/5 325/4/5
f 328/4/5 326/4/5 327/4/5
f 329/2/6 330/2/6 331/2/6
f 331/2/6 330/2/6 332/2/6
f 333/2/6 334/2/6 335/2/6
f 335/2/6 334/2/6 336/2/6
f 337/2/6 338/2/6 339/2/6
f 339/2/6 338/2/6 340/2/6
f 341/2/6 342/2/6 343/2/6
f 343/2/6 342/2/6 344/2/6
f 345/2/6 346/2/6 347/2/6
f 347/2/6 346/2/6 348/2/6
f 349/2/6 350/2/6 351/2/6
f 351/2/6 350/2/6 352/2/6
f 353/2/6 354/2/6 355/2/6
f 355/2/6 354/2/6 356/2/6
f 357/2/6 358/2/6 359/2/6
f 359/2/6 358/2/6 360/2/6
f 361/4/6 362/4/6 363/4/6
f 363/4/6 362/4/6 364/4/6
f 365/2/6 366/2/6 369/2/6
f 369/2/6 366/2/6 370/2/6
f 367/4/6 368/4/6 371/4/6
f 371/4/6 368/4/6 372/4/6
f 373/4/6 374/4/6 375/4/6
f 375/4/6 374/4/6 376/4/6
f 377/4/6 378/4/6 381/4/6
f 381/4/6 378/4/6 382/4/6
f 379/4/6 380/4/6 383/4/6
f 383/4/6 380/4/6 384/4/6
f 385/4/6 386/4/6 387/4/6
f 387/4/6 386/4/6 388/4/6
