# MagicaVoxel @ Ephtracy

# group
o 

# material
mtllib Pico.mtl
usemtl palette

# normals
vn -1 0 0
vn 1 0 0
vn 0 0 1
vn 0 0 -1
vn 0 -1 0
vn 0 1 0

# texcoords
vt 0.373047 0.5
vt 0.537109 0.5
vt 0.970703 0.5
vt 0.978516 0.5

# verts
v -0.7 1.7 0.6
v -0.7 1.7 0.5
v -0.7 2.2 0.6
v -0.7 2.2 0.5
v -0.6 1.6 0.6
v -0.6 1.6 0.5
v -0.6 1.7 0.6
v -0.6 1.7 0.5
v -0.6 2.2 0.6
v -0.6 2.2 0.5
v -0.6 2.3 0.6
v -0.6 2.3 0.5
v -0.6 2.4 0.6
v -0.6 2.4 0.5
v -0.6 2.5 0.6
v -0.6 2.5 0.5
v -0.3 2 0.6
v -0.3 2 0.5
v -0.3 2.1 0.6
v -0.3 2.1 0.5
v -0.3 2.5 0.6
v -0.3 2.5 0.5
v -0.3 2.6 0.6
v -0.3 2.6 0.5
v -0.2 1.9 0.6
v -0.2 1.9 0.5
v -0.2 2 0.6
v -0.2 2 0.5
v -0.1 1.8 0.6
v -0.1 1.8 0.5
v -0.1 1.9 0.6
v -0.1 1.9 0.5
v 5.96046e-08 1.7 0.6
v 5.96046e-08 1.7 0.5
v 5.96046e-08 1.8 0.6
v 5.96046e-08 1.8 0.5
v 0.1 1.6 0.6
v 0.1 1.6 0.5
v 0.1 1.7 0.6
v 0.1 1.7 0.5
v 0.2 1.5 0.6
v 0.2 1.5 0.5
v 0.2 1.6 0.6
v 0.2 1.6 0.5
v 0.3 1.4 0.6
v 0.3 1.4 0.5
v 0.3 1.5 0.6
v 0.3 1.5 0.5
v 0.4 1.3 0.6
v 0.4 1.3 0.5
v 0.4 1.4 0.6
v 0.4 1.4 0.5
v 0.5 1.2 0.6
v 0.5 1.2 0.5
v 0.5 1.3 0.6
v 0.5 1.3 0.5
v 0.6 1.1 0.6
v 0.6 1.1 0.5
v 0.6 1.2 0.6
v 0.6 1.2 0.5
v -0.5 1.6 0.6
v -0.5 1.6 0.5
v -0.5 1.7 0.6
v -0.5 1.7 0.5
v -0.4 1.7 0.6
v -0.4 1.7 0.5
v -0.4 2.1 0.6
v -0.4 2.1 0.5
v -0.2 2.2 0.6
v -0.2 2.2 0.5
v -0.2 2.3 0.6
v -0.2 2.3 0.5
v -0.1 2.1 0.6
v -0.1 2.1 0.5
v -0.1 2.2 0.6
v -0.1 2.2 0.5
v 5.96046e-08 2 0.6
v 5.96046e-08 2 0.5
v 5.96046e-08 2.1 0.6
v 5.96046e-08 2.1 0.5
v 0.1 1.9 0.6
v 0.1 1.9 0.5
v 0.1 2 0.6
v 0.1 2 0.5
v 0.2 1.8 0.6
v 0.2 1.8 0.5
v 0.2 1.9 0.6
v 0.2 1.9 0.5
v 0.2 2.3 0.6
v 0.2 2.3 0.5
v 0.2 2.4 0.6
v 0.2 2.4 0.5
v 0.2 2.5 0.6
v 0.2 2.5 0.5
v 0.2 2.6 0.6
v 0.2 2.6 0.5
v 0.3 1.7 0.6
v 0.3 1.7 0.5
v 0.3 1.8 0.6
v 0.3 1.8 0.5
v 0.3 2.4 0.6
v 0.3 2.4 0.5
v 0.3 2.5 0.6
v 0.3 2.5 0.5
v 0.4 1.6 0.6
v 0.4 1.6 0.5
v 0.4 1.7 0.6
v 0.4 1.7 0.5
v 0.5 1.5 0.6
v 0.5 1.5 0.5
v 0.5 1.6 0.6
v 0.5 1.6 0.5
v 0.6 1.4 0.6
v 0.6 1.4 0.5
v 0.6 1.5 0.6
v 0.6 1.5 0.5
v 0.7 1.3 0.6
v 0.7 1.3 0.5
v 0.7 1.4 0.6
v 0.7 1.4 0.5
v 0.8 1.1 0.6
v 0.8 1.1 0.5
v 0.8 1.2 0.6
v 0.8 1.2 0.5
v 0.8 1.3 0.6
v 0.8 1.3 0.5
v -0.7 1.7 0.6
v -0.7 2.2 0.6
v -0.6 1.6 0.6
v -0.6 1.7 0.6
v -0.6 2.2 0.6
v -0.6 2.3 0.6
v -0.6 2.4 0.6
v -0.6 2.5 0.6
v -0.5 1.6 0.6
v -0.5 1.7 0.6
v -0.5 2.2 0.6
v -0.5 2.3 0.6
v -0.5 2.4 0.6
v -0.5 2.5 0.6
v -0.4 1.7 0.6
v -0.4 2.1 0.6
v -0.4 2.2 0.6
v -0.4 2.3 0.6
v -0.4 2.4 0.6
v -0.4 2.5 0.6
v -0.3 2 0.6
v -0.3 2.1 0.6
v -0.3 2.2 0.6
v -0.3 2.3 0.6
v -0.3 2.4 0.6
v -0.3 2.5 0.6
v -0.3 2.6 0.6
v -0.2 1.9 0.6
v -0.2 2 0.6
v -0.2 2.1 0.6
v -0.2 2.2 0.6
v -0.2 2.3 0.6
v -0.1 1.8 0.6
v -0.1 1.9 0.6
v -0.1 2 0.6
v -0.1 2.1 0.6
v -0.1 2.2 0.6
v 5.96046e-08 1.7 0.6
v 5.96046e-08 1.8 0.6
v 5.96046e-08 1.9 0.6
v 5.96046e-08 2 0.6
v 5.96046e-08 2.1 0.6
v 0.1 1.6 0.6
v 0.1 1.7 0.6
v 0.1 1.8 0.6
v 0.1 1.9 0.6
v 0.1 2 0.6
v 0.2 1.5 0.6
v 0.2 1.6 0.6
v 0.2 1.7 0.6
v 0.2 1.8 0.6
v 0.2 1.9 0.6
v 0.2 2.3 0.6
v 0.2 2.4 0.6
v 0.2 2.5 0.6
v 0.2 2.6 0.6
v 0.3 1.4 0.6
v 0.3 1.5 0.6
v 0.3 1.6 0.6
v 0.3 1.7 0.6
v 0.3 1.8 0.6
v 0.3 2.4 0.6
v 0.3 2.5 0.6
v 0.4 1.3 0.6
v 0.4 1.4 0.6
v 0.4 1.5 0.6
v 0.4 1.6 0.6
v 0.4 1.7 0.6
v 0.5 1.2 0.6
v 0.5 1.3 0.6
v 0.5 1.4 0.6
v 0.5 1.5 0.6
v 0.5 1.6 0.6
v 0.6 1.1 0.6
v 0.6 1.2 0.6
v 0.6 1.3 0.6
v 0.6 1.4 0.6
v 0.6 1.5 0.6
v 0.7 1.1 0.6
v 0.7 1.2 0.6
v 0.7 1.3 0.6
v 0.7 1.4 0.6
v 0.8 1.1 0.6
v 0.8 1.2 0.6
v 0.8 1.3 0.6
v -0.7 1.7 0.5
v -0.7 2.2 0.5
v -0.6 1.6 0.5
v -0.6 1.7 0.5
v -0.6 2.2 0.5
v -0.6 2.3 0.5
v -0.6 2.4 0.5
v -0.6 2.5 0.5
v -0.5 1.6 0.5
v -0.5 1.7 0.5
v -0.5 2.2 0.5
v -0.5 2.3 0.5
v -0.5 2.4 0.5
v -0.5 2.5 0.5
v -0.4 1.7 0.5
v -0.4 2.1 0.5
v -0.4 2.2 0.5
v -0.4 2.3 0.5
v -0.4 2.4 0.5
v -0.4 2.5 0.5
v -0.3 2 0.5
v -0.3 2.1 0.5
v -0.3 2.2 0.5
v -0.3 2.3 0.5
v -0.3 2.4 0.5
v -0.3 2.5 0.5
v -0.3 2.6 0.5
v -0.2 1.9 0.5
v -0.2 2 0.5
v -0.2 2.1 0.5
v -0.2 2.2 0.5
v -0.2 2.3 0.5
v -0.1 1.8 0.5
v -0.1 1.9 0.5
v -0.1 2 0.5
v -0.1 2.1 0.5
v -0.1 2.2 0.5
v 5.96046e-08 1.7 0.5
v 5.96046e-08 1.8 0.5
v 5.96046e-08 1.9 0.5
v 5.96046e-08 2 0.5
v 5.96046e-08 2.1 0.5
v 0.1 1.6 0.5
v 0.1 1.7 0.5
v 0.1 1.8 0.5
v 0.1 1.9 0.5
v 0.1 2 0.5
v 0.2 1.5 0.5
v 0.2 1.6 0.5
v 0.2 1.7 0.5
v 0.2 1.8 0.5
v 0.2 1.9 0.5
v 0.2 2.3 0.5
v 0.2 2.4 0.5
v 0.2 2.5 0.5
v 0.2 2.6 0.5
v 0.3 1.4 0.5
v 0.3 1.5 0.5
v 0.3 1.6 0.5
v 0.3 1.7 0.5
v 0.3 1.8 0.5
v 0.3 2.4 0.5
v 0.3 2.5 0.5
v 0.4 1.3 0.5
v 0.4 1.4 0.5
v 0.4 1.5 0.5
v 0.4 1.6 0.5
v 0.4 1.7 0.5
v 0.5 1.2 0.5
v 0.5 1.3 0.5
v 0.5 1.4 0.5
v 0.5 1.5 0.5
v 0.5 1.6 0.5
v 0.6 1.1 0.5
v 0.6 1.2 0.5
v 0.6 1.3 0.5
v 0.6 1.4 0.5
v 0.6 1.5 0.5
v 0.7 1.1 0.5
v 0.7 1.2 0.5
v 0.7 1.3 0.5
v 0.7 1.4 0.5
v 0.8 1.1 0.5
v 0.8 1.2 0.5
v 0.8 1.3 0.5
v 0.6 1.1 0.6
v 0.7 1.1 0.6
v 0.8 1.1 0.6
v 0.6 1.1 0.5
v 0.7 1.1 0.5
v 0.8 1.1 0.5
v 0.5 1.2 0.6
v 0.6 1.2 0.6
v 0.5 1.2 0.5
v 0.6 1.2 0.5
v 0.4 1.3 0.6
v 0.5 1.3 0.6
v 0.4 1.3 0.5
v 0.5 1.3 0.5
v 0.3 1.4 0.6
v 0.4 1.4 0.6
v 0.3 1.4 0.5
v 0.4 1.4 0.5
v 0.2 1.5 0.6
v 0.3 1.5 0.6
v 0.2 1.5 0.5
v 0.3 1.5 0.5
v -0.6 1.6 0.6
v -0.5 1.6 0.6
v 0.1 1.6 0.6
v 0.2 1.6 0.6
v -0.6 1.6 0.5
v -0.5 1.6 0.5
v 0.1 1.6 0.5
v 0.2 1.6 0.5
v -0.7 1.7 0.6
v -0.6 1.7 0.6
v -0.5 1.7 0.6
v -0.4 1.7 0.6
v 5.96046e-08 1.7 0.6
v 0.1 1.7 0.6
v -0.7 1.7 0.5
v -0.6 1.7 0.5
v -0.5 1.7 0.5
v -0.4 1.7 0.5
v 5.96046e-08 1.7 0.5
v 0.1 1.7 0.5
v -0.1 1.8 0.6
v 5.96046e-08 1.8 0.6
v -0.1 1.8 0.5
v 5.96046e-08 1.8 0.5
v -0.2 1.9 0.6
v -0.1 1.9 0.6
v -0.2 1.9 0.5
v -0.1 1.9 0.5
v -0.3 2 0.6
v -0.2 2 0.6
v -0.3 2 0.5
v -0.2 2 0.5
v -0.4 2.1 0.6
v -0.3 2.1 0.6
v -0.4 2.1 0.5
v -0.3 2.1 0.5
v -0.2 2.3 0.6
v 0.2 2.3 0.6
v -0.2 2.3 0.5
v 0.2 2.3 0.5
v 0.2 2.4 0.6
v 0.3 2.4 0.6
v 0.2 2.4 0.5
v 0.3 2.4 0.5
v 0.7 1.3 0.6
v 0.8 1.3 0.6
v 0.7 1.3 0.5
v 0.8 1.3 0.5
v 0.6 1.4 0.6
v 0.7 1.4 0.6
v 0.6 1.4 0.5
v 0.7 1.4 0.5
v 0.5 1.5 0.6
v 0.6 1.5 0.6
v 0.5 1.5 0.5
v 0.6 1.5 0.5
v 0.4 1.6 0.6
v 0.5 1.6 0.6
v 0.4 1.6 0.5
v 0.5 1.6 0.5
v 0.3 1.7 0.6
v 0.4 1.7 0.6
v 0.3 1.7 0.5
v 0.4 1.7 0.5
v 0.2 1.8 0.6
v 0.3 1.8 0.6
v 0.2 1.8 0.5
v 0.3 1.8 0.5
v 0.1 1.9 0.6
v 0.2 1.9 0.6
v 0.1 1.9 0.5
v 0.2 1.9 0.5
v 5.96046e-08 2 0.6
v 0.1 2 0.6
v 5.96046e-08 2 0.5
v 0.1 2 0.5
v -0.1 2.1 0.6
v 5.96046e-08 2.1 0.6
v -0.1 2.1 0.5
v 5.96046e-08 2.1 0.5
v -0.7 2.2 0.6
v -0.6 2.2 0.6
v -0.2 2.2 0.6
v -0.1 2.2 0.6
v -0.7 2.2 0.5
v -0.6 2.2 0.5
v -0.2 2.2 0.5
v -0.1 2.2 0.5
v -0.6 2.5 0.6
v -0.5 2.5 0.6
v -0.4 2.5 0.6
v -0.3 2.5 0.6
v 0.2 2.5 0.6
v 0.3 2.5 0.6
v -0.6 2.5 0.5
v -0.5 2.5 0.5
v -0.4 2.5 0.5
v -0.3 2.5 0.5
v 0.2 2.5 0.5
v 0.3 2.5 0.5
v -0.3 2.6 0.6
v 0.2 2.6 0.6
v -0.3 2.6 0.5
v 0.2 2.6 0.5

# faces
f 3/4/1 2/4/1 1/4/1
f 4/4/1 2/4/1 3/4/1
f 7/4/1 6/4/1 5/4/1
f 8/4/1 6/4/1 7/4/1
f 11/3/1 10/3/1 9/3/1
f 12/3/1 10/3/1 11/3/1
f 13/2/1 12/2/1 11/2/1
f 14/2/1 12/2/1 13/2/1
f 15/1/1 14/1/1 13/1/1
f 16/1/1 14/1/1 15/1/1
f 19/2/1 18/2/1 17/2/1
f 20/2/1 18/2/1 19/2/1
f 23/4/1 22/4/1 21/4/1
f 24/4/1 22/4/1 23/4/1
f 27/2/1 26/2/1 25/2/1
f 28/2/1 26/2/1 27/2/1
f 31/2/1 30/2/1 29/2/1
f 32/2/1 30/2/1 31/2/1
f 35/2/1 34/2/1 33/2/1
f 36/2/1 34/2/1 35/2/1
f 39/2/1 38/2/1 37/2/1
f 40/2/1 38/2/1 39/2/1
f 43/2/1 42/2/1 41/2/1
f 44/2/1 42/2/1 43/2/1
f 47/2/1 46/2/1 45/2/1
f 48/2/1 46/2/1 47/2/1
f 51/2/1 50/2/1 49/2/1
f 52/2/1 50/2/1 51/2/1
f 55/2/1 54/2/1 53/2/1
f 56/2/1 54/2/1 55/2/1
f 59/2/1 58/2/1 57/2/1
f 60/2/1 58/2/1 59/2/1
f 61/4/2 62/4/2 63/4/2
f 63/4/2 62/4/2 64/4/2
f 65/4/2 66/4/2 67/4/2
f 67/4/2 66/4/2 68/4/2
f 69/2/2 70/2/2 71/2/2
f 71/2/2 70/2/2 72/2/2
f 73/2/2 74/2/2 75/2/2
f 75/2/2 74/2/2 76/2/2
f 77/2/2 78/2/2 79/2/2
f 79/2/2 78/2/2 80/2/2
f 81/2/2 82/2/2 83/2/2
f 83/2/2 82/2/2 84/2/2
f 85/2/2 86/2/2 87/2/2
f 87/2/2 86/2/2 88/2/2
f 89/4/2 90/4/2 91/4/2
f 91/4/2 90/4/2 92/4/2
f 93/4/2 94/4/2 95/4/2
f 95/4/2 94/4/2 96/4/2
f 97/2/2 98/2/2 99/2/2
f 99/2/2 98/2/2 100/2/2
f 101/4/2 102/4/2 103/4/2
f 103/4/2 102/4/2 104/4/2
f 105/2/2 106/2/2 107/2/2
f 107/2/2 106/2/2 108/2/2
f 109/2/2 110/2/2 111/2/2
f 111/2/2 110/2/2 112/2/2
f 113/2/2 114/2/2 115/2/2
f 115/2/2 114/2/2 116/2/2
f 117/2/2 118/2/2 119/2/2
f 119/2/2 118/2/2 120/2/2
f 121/1/2 122/1/2 123/1/2
f 123/1/2 122/1/2 124/1/2
f 123/2/2 124/2/2 125/2/2
f 125/2/2 124/2/2 126/2/2
f 130/4/3 128/4/3 127/4/3
f 131/4/3 128/4/3 130/4/3
f 135/4/3 130/4/3 129/4/3
f 136/3/3 131/3/3 130/3/3
f 136/4/3 130/4/3 135/4/3
f 136/3/3 132/3/3 131/3/3
f 137/3/3 132/3/3 136/3/3
f 138/2/3 133/2/3 132/2/3
f 138/3/3 132/3/3 137/3/3
f 139/1/3 134/1/3 133/1/3
f 139/2/3 133/2/3 138/2/3
f 140/1/3 134/1/3 139/1/3
f 141/4/3 137/4/3 136/4/3
f 142/4/3 137/4/3 141/4/3
f 143/3/3 138/3/3 137/3/3
f 143/4/3 137/4/3 142/4/3
f 144/1/3 139/1/3 138/1/3
f 144/3/3 138/3/3 143/3/3
f 145/2/3 140/2/3 139/2/3
f 145/1/3 139/1/3 144/1/3
f 146/2/3 140/2/3 145/2/3
f 148/2/3 143/2/3 142/2/3
f 149/3/3 144/3/3 143/3/3
f 149/3/3 146/3/3 145/3/3
f 149/2/3 143/2/3 148/2/3
f 149/3/3 145/3/3 144/3/3
f 150/3/3 146/3/3 149/3/3
f 151/3/3 146/3/3 150/3/3
f 152/3/3 146/3/3 151/3/3
f 155/2/3 148/2/3 147/2/3
f 156/1/3 149/1/3 148/1/3
f 156/2/3 148/2/3 155/2/3
f 157/2/3 150/2/3 149/2/3
f 157/1/3 149/1/3 156/1/3
f 158/4/3 151/4/3 150/4/3
f 158/2/3 150/2/3 157/2/3
f 160/2/3 155/2/3 154/2/3
f 161/1/3 156/1/3 155/1/3
f 161/2/3 155/2/3 160/2/3
f 162/2/3 157/2/3 156/2/3
f 162/1/3 156/1/3 161/1/3
f 163/2/3 157/2/3 162/2/3
f 165/2/3 160/2/3 159/2/3
f 166/1/3 161/1/3 160/1/3
f 166/2/3 160/2/3 165/2/3
f 167/2/3 162/2/3 161/2/3
f 167/1/3 161/1/3 166/1/3
f 168/2/3 162/2/3 167/2/3
f 170/2/3 165/2/3 164/2/3
f 171/1/3 166/1/3 165/1/3
f 171/2/3 165/2/3 170/2/3
f 172/2/3 167/2/3 166/2/3
f 172/1/3 166/1/3 171/1/3
f 173/2/3 167/2/3 172/2/3
f 175/2/3 170/2/3 169/2/3
f 176/1/3 171/1/3 170/1/3
f 176/2/3 170/2/3 175/2/3
f 177/2/3 172/2/3 171/2/3
f 177/1/3 171/1/3 176/1/3
f 178/2/3 172/2/3 177/2/3
f 179/4/3 151/4/3 158/4/3
f 180/3/3 152/3/3 151/3/3
f 180/4/3 151/4/3 179/4/3
f 181/4/3 153/4/3 152/4/3
f 181/3/3 152/3/3 180/3/3
f 182/4/3 153/4/3 181/4/3
f 184/2/3 175/2/3 174/2/3
f 185/1/3 176/1/3 175/1/3
f 185/2/3 175/2/3 184/2/3
f 186/2/3 177/2/3 176/2/3
f 186/1/3 176/1/3 185/1/3
f 187/2/3 177/2/3 186/2/3
f 188/4/3 181/4/3 180/4/3
f 189/4/3 181/4/3 188/4/3
f 191/2/3 184/2/3 183/2/3
f 192/1/3 185/1/3 184/1/3
f 192/2/3 184/2/3 191/2/3
f 193/2/3 186/2/3 185/2/3
f 193/1/3 185/1/3 192/1/3
f 194/2/3 186/2/3 193/2/3
f 196/2/3 191/2/3 190/2/3
f 197/1/3 192/1/3 191/1/3
f 197/2/3 191/2/3 196/2/3
f 198/2/3 193/2/3 192/2/3
f 198/1/3 192/1/3 197/1/3
f 199/2/3 193/2/3 198/2/3
f 201/2/3 196/2/3 195/2/3
f 202/1/3 197/1/3 196/1/3
f 202/2/3 196/2/3 201/2/3
f 203/2/3 198/2/3 197/2/3
f 203/1/3 197/1/3 202/1/3
f 204/2/3 198/2/3 203/2/3
f 205/2/3 201/2/3 200/2/3
f 206/1/3 202/1/3 201/1/3
f 206/2/3 201/2/3 205/2/3
f 207/2/3 203/2/3 202/2/3
f 207/1/3 202/1/3 206/1/3
f 208/2/3 203/2/3 207/2/3
f 209/1/3 206/1/3 205/1/3
f 210/2/3 207/2/3 206/2/3
f 210/1/3 206/1/3 209/1/3
f 211/2/3 207/2/3 210/2/3
f 212/4/4 213/4/4 215/4/4
f 215/4/4 213/4/4 216/4/4
f 214/4/4 215/4/4 220/4/4
f 215/3/4 216/3/4 221/3/4
f 220/4/4 215/4/4 221/4/4
f 216/3/4 217/3/4 221/3/4
f 221/3/4 217/3/4 222/3/4
f 217/2/4 218/2/4 223/2/4
f 222/3/4 217/3/4 223/3/4
f 218/1/4 219/1/4 224/1/4
f 223/2/4 218/2/4 224/2/4
f 224/1/4 219/1/4 225/1/4
f 221/4/4 222/4/4 226/4/4
f 226/4/4 222/4/4 227/4/4
f 222/3/4 223/3/4 228/3/4
f 227/4/4 222/4/4 228/4/4
f 223/1/4 224/1/4 229/1/4
f 228/3/4 223/3/4 229/3/4
f 224/2/4 225/2/4 230/2/4
f 229/1/4 224/1/4 230/1/4
f 230/2/4 225/2/4 231/2/4
f 227/2/4 228/2/4 233/2/4
f 228/3/4 229/3/4 234/3/4
f 230/3/4 231/3/4 234/3/4
f 233/2/4 228/2/4 234/2/4
f 229/3/4 230/3/4 234/3/4
f 234/3/4 231/3/4 235/3/4
f 235/3/4 231/3/4 236/3/4
f 236/3/4 231/3/4 237/3/4
f 232/2/4 233/2/4 240/2/4
f 233/1/4 234/1/4 241/1/4
f 240/2/4 233/2/4 241/2/4
f 234/2/4 235/2/4 242/2/4
f 241/1/4 234/1/4 242/1/4
f 235/4/4 236/4/4 243/4/4
f 242/2/4 235/2/4 243/2/4
f 239/2/4 240/2/4 245/2/4
f 240/1/4 241/1/4 246/1/4
f 245/2/4 240/2/4 246/2/4
f 241/2/4 242/2/4 247/2/4
f 246/1/4 241/1/4 247/1/4
f 247/2/4 242/2/4 248/2/4
f 244/2/4 245/2/4 250/2/4
f 245/1/4 246/1/4 251/1/4
f 250/2/4 245/2/4 251/2/4
f 246/2/4 247/2/4 252/2/4
f 251/1/4 246/1/4 252/1/4
f 252/2/4 247/2/4 253/2/4
f 249/2/4 250/2/4 255/2/4
f 250/1/4 251/1/4 256/1/4
f 255/2/4 250/2/4 256/2/4
f 251/2/4 252/2/4 257/2/4
f 256/1/4 251/1/4 257/1/4
f 257/2/4 252/2/4 258/2/4
f 254/2/4 255/2/4 260/2/4
f 255/1/4 256/1/4 261/1/4
f 260/2/4 255/2/4 261/2/4
f 256/2/4 257/2/4 262/2/4
f 261/1/4 256/1/4 262/1/4
f 262/2/4 257/2/4 263/2/4
f 243/4/4 236/4/4 264/4/4
f 236/3/4 237/3/4 265/3/4
f 264/4/4 236/4/4 265/4/4
f 237/4/4 238/4/4 266/4/4
f 265/3/4 237/3/4 266/3/4
f 266/4/4 238/4/4 267/4/4
f 259/2/4 260/2/4 269/2/4
f 260/1/4 261/1/4 270/1/4
f 269/2/4 260/2/4 270/2/4
f 261/2/4 262/2/4 271/2/4
f 270/1/4 261/1/4 271/1/4
f 271/2/4 262/2/4 272/2/4
f 265/4/4 266/4/4 273/4/4
f 273/4/4 266/4/4 274/4/4
f 268/2/4 269/2/4 276/2/4
f 269/1/4 270/1/4 277/1/4
f 276/2/4 269/2/4 277/2/4
f 270/2/4 271/2/4 278/2/4
f 277/1/4 270/1/4 278/1/4
f 278/2/4 271/2/4 279/2/4
f 275/2/4 276/2/4 281/2/4
f 276/1/4 277/1/4 282/1/4
f 281/2/4 276/2/4 282/2/4
f 277/2/4 278/2/4 283/2/4
f 282/1/4 277/1/4 283/1/4
f 283/2/4 278/2/4 284/2/4
f 280/2/4 281/2/4 286/2/4
f 281/1/4 282/1/4 287/1/4
f 286/2/4 281/2/4 287/2/4
f 282/2/4 283/2/4 288/2/4
f 287/1/4 282/1/4 288/1/4
f 288/2/4 283/2/4 289/2/4
f 285/2/4 286/2/4 290/2/4
f 286/1/4 287/1/4 291/1/4
f 290/2/4 286/2/4 291/2/4
f 287/2/4 288/2/4 292/2/4
f 291/1/4 287/1/4 292/1/4
f 292/2/4 288/2/4 293/2/4
f 290/1/4 291/1/4 294/1/4
f 291/2/4 292/2/4 295/2/4
f 294/1/4 291/1/4 295/1/4
f 295/2/4 292/2/4 296/2/4
f 300/2/5 298/2/5 297/2/5
f 301/1/5 299/1/5 298/1/5
f 301/2/5 298/2/5 300/2/5
f 302/1/5 299/1/5 301/1/5
f 305/2/5 304/2/5 303/2/5
f 306/2/5 304/2/5 305/2/5
f 309/2/5 308/2/5 307/2/5
f 310/2/5 308/2/5 309/2/5
f 313/2/5 312/2/5 311/2/5
f 314/2/5 312/2/5 313/2/5
f 317/2/5 316/2/5 315/2/5
f 318/2/5 316/2/5 317/2/5
f 323/4/5 320/4/5 319/4/5
f 324/4/5 320/4/5 323/4/5
f 325/2/5 322/2/5 321/2/5
f 326/2/5 322/2/5 325/2/5
f 333/4/5 328/4/5 327/4/5
f 334/4/5 328/4/5 333/4/5
f 335/4/5 330/4/5 329/4/5
f 336/4/5 330/4/5 335/4/5
f 337/2/5 332/2/5 331/2/5
f 338/2/5 332/2/5 337/2/5
f 341/2/5 340/2/5 339/2/5
f 342/2/5 340/2/5 341/2/5
f 345/2/5 344/2/5 343/2/5
f 346/2/5 344/2/5 345/2/5
f 349/2/5 348/2/5 347/2/5
f 350/2/5 348/2/5 349/2/5
f 353/2/5 352/2/5 351/2/5
f 354/2/5 352/2/5 353/2/5
f 357/4/5 356/4/5 355/4/5
f 358/4/5 356/4/5 357/4/5
f 361/4/5 360/4/5 359/4/5
f 362/4/5 360/4/5 361/4/5
f 363/2/6 364/2/6 365/2/6
f 365/2/6 364/2/6 366/2/6
f 367/2/6 368/2/6 369/2/6
f 369/2/6 368/2/6 370/2/6
f 371/2/6 372/2/6 373/2/6
f 373/2/6 372/2/6 374/2/6
f 375/2/6 376/2/6 377/2/6
f 377/2/6 376/2/6 378/2/6
f 379/2/6 380/2/6 381/2/6
f 381/2/6 380/2/6 382/2/6
f 383/2/6 384/2/6 385/2/6
f 385/2/6 384/2/6 386/2/6
f 387/2/6 388/2/6 389/2/6
f 389/2/6 388/2/6 390/2/6
f 391/2/6 392/2/6 393/2/6
f 393/2/6 392/2/6 394/2/6
f 395/2/6 396/2/6 397/2/6
f 397/2/6 396/2/6 398/2/6
f 399/4/6 400/4/6 403/4/6
f 403/4/6 400/4/6 404/4/6
f 401/2/6 402/2/6 405/2/6
f 405/2/6 402/2/6 406/2/6
f 407/1/6 408/1/6 413/1/6
f 408/2/6 409/2/6 414/2/6
f 413/1/6 408/1/6 414/1/6
f 409/3/6 410/3/6 415/3/6
f 414/2/6 409/2/6 415/2/6
f 415/3/6 410/3/6 416/3/6
f 411/4/6 412/4/6 417/4/6
f 417/4/6 412/4/6 418/4/6
f 419/4/6 420/4/6 421/4/6
f 421/4/6 420/4/6 422/4/6
